# xmcd
# Track frame offsets:
# 150
# 13750
# 29381
# 43267
# 61900
# 76266
# 91921
# 106813
# 124631
# 136897
# 159316
# 178590
# 195614
# 212199
# 227433
# 244064
# 259239
#
# Disc length: 3690 seconds
# Revision: 0
# Processed by: cddbd v1.5.2PL0 Copyright (c) Steve Scherf et al.
# Submitted via: VisiTrax 2.11.1.266 - For more info visit www.synapsa.com
#
DISCID=db0e6811
DTITLE=Bill and Bonnie Hearne - Most Requested Plus: The Best of Bill and Bonni
DTITLE=e Hearne
DYEAR=1993
DGENRE=Country
TTITLE0=Other Side of the Hill, The
TTITLE1=Cowboy Fantasy
TTITLE2=Gulf Coast Highway
TTITLE3=Evangelina
TTITLE4=No One Gives Us Tomorrow
TTITLE5=West Texas Wind
TTITLE6=Roseville Fair
TTITLE7=Wild Geese
TTITLE8=Navajo Rug
TTITLE9=Love at the Five and Dime
TTITLE10=New Mexico Rain
TTITLE11=Fusion
TTITLE12=Drifter's Wind
TTITLE13=Georgetown
TTITLE14=Own Heart's Delight
TTITLE15=Spirit of the Endless Sky
TTITLE16=Sweet Mountain Breeze
EXTD=Submitted by Larry@LosSenderosStudio.com
EXTT0=
EXTT1=
EXTT2=
EXTT3=
EXTT4=
EXTT5=
EXTT6=
EXTT7=
EXTT8=
EXTT9=
EXTT10=
EXTT11=
EXTT12=
EXTT13=
EXTT14=
EXTT15=
EXTT16=
PLAYORDER=
